<?xml version="1.0" standalone="no"?>
<!DOCTYPE svg PUBLIC "-//W3C//DTD SVG 20010904//EN"
 "http://www.w3.org/TR/2001/REC-SVG-20010904/DTD/svg10.dtd">
<svg version="1.0" xmlns="http://www.w3.org/2000/svg"
 width="512.000000pt" height="512.000000pt" viewBox="0 0 512.000000 512.000000"
 preserveAspectRatio="xMidYMid meet">

<g transform="translate(0.000000,512.000000) scale(0.100000,-0.100000)"
fill="#123" stroke="1px">
<path d="M2323 5110 c-599 -58 -1150 -318 -1573 -742 -397 -399 -638 -881
-727 -1458 -24 -161 -24 -539 0 -700 89 -578 332 -1063 729 -1460 399 -397
881 -638 1458 -727 161 -24 539 -24 700 0 578 89 1063 332 1460 729 397 399
638 881 727 1458 24 161 24 539 0 700 -89 578 -332 1063 -729 1460 -396 395
-884 639 -1448 725 -125 19 -468 27 -597 15z m545 -460 c356 -52 680 -189 973
-410 108 -82 317 -291 399 -399 288 -382 430 -804 430 -1281 0 -477 -142 -899
-430 -1281 -82 -108 -291 -317 -399 -399 -382 -288 -804 -430 -1281 -430 -477
0 -899 142 -1281 430 -108 82 -317 291 -399 399 -288 382 -430 804 -430 1281
0 477 142 899 430 1281 82 108 291 317 399 399 289 218 616 357 964 410 173
26 449 26 625 0z"/>
</g>
</svg>
